<?xml version="1.0" standalone="no"?>
<!DOCTYPE svg PUBLIC "-//W3C//DTD SVG 20010904//EN"
 "http://www.w3.org/TR/2001/REC-SVG-20010904/DTD/svg10.dtd">
<svg version="1.0" xmlns="http://www.w3.org/2000/svg"
 width="229.000000pt" height="156.000000pt" viewBox="0 0 229.000000 156.000000"
 preserveAspectRatio="xMidYMid meet">
<metadata>
Created by potrace 1.15, written by Peter Selinger 2001-2017
</metadata>
<g transform="translate(0.000000,156.000000) scale(0.100000,-0.100000)"
fill="#000000" stroke="none">
<path d="M1026 1319 c-35 -28 -35 -70 0 -98 15 -12 37 -21 49 -21 35 0 75 37
75 70 0 33 -40 70 -75 70 -12 0 -34 -9 -49 -21z"/>
<path d="M1047 1063 c-4 -3 -7 -12 -7 -20 0 -9 15 -13 51 -13 l50 0 -3 -224
c-3 -221 -3 -225 -27 -250 -13 -14 -39 -30 -57 -36 -19 -7 -34 -16 -34 -21 0
-36 104 -5 144 42 40 47 46 90 46 317 l0 212 -78 0 c-43 0 -82 -3 -85 -7z"/>
<path d="M727 1038 c-100 -59 -35 -158 103 -158 103 0 163 47 146 113 -15 63
-170 90 -249 45z"/>
<path d="M1260 898 c0 -2 9 -30 19 -63 10 -33 31 -99 46 -147 26 -88 26 -88
60 -88 28 0 32 3 28 20 -5 20 26 120 37 120 4 0 16 -30 27 -67 19 -64 22 -68
52 -71 30 -3 31 -2 25 23 -4 17 7 63 36 146 24 66 40 122 37 126 -17 16 -35
-13 -62 -96 -16 -50 -31 -91 -34 -91 -3 0 -19 43 -35 95 -28 92 -30 95 -59 95
-26 0 -29 -3 -23 -22 17 -59 17 -85 -2 -133 -13 -33 -22 -45 -26 -35 -3 8 -18
53 -34 100 -26 82 -28 85 -59 88 -18 2 -33 2 -33 0z"/>
<path d="M450 740 c-72 -24 -120 -75 -120 -126 0 -51 56 -106 130 -128 69 -21
191 -21 260 0 74 22 130 77 130 129 0 52 -56 107 -130 129 -74 22 -200 20
-270 -4z"/>
<path d="M810 325 l0 -25 510 0 510 0 0 25 0 25 -510 0 -510 0 0 -25z"/>
</g>
</svg>
